<svg height="512pt" viewBox="0 0 512 512" width="512pt" xmlns="http://www.w3.org/2000/svg"><path d="m326.546875 163.742188h-141.09375c-11.972656 0-21.710937 9.738281-21.710937 21.710937v141.09375c0 11.972656 9.738281 21.710937 21.710937 21.710937h141.09375c11.972656 0 21.710937-9.738281 21.710937-21.710937v-141.09375c0-11.972656-9.738281-21.710937-21.710937-21.710937zm-8.289063 154.515624h-124.515624v-124.515624h124.515624zm0 0"/><path d="m497 201.8125c8.285156 0 15-6.714844 15-15s-6.714844-15-15-15h-34.585938v-38.03125h34.585938c8.285156 0 15-6.71875 15-15 0-8.285156-6.714844-15-15-15h-34.585938v-14.023438c0-22.152343-18.019531-40.175781-40.171874-40.175781h-14.023438v-34.582031c0-8.285156-6.714844-15-15-15-8.28125 0-15 6.714844-15 15v34.582031h-38.03125v-34.582031c0-8.285156-6.714844-15-15-15s-15 6.714844-15 15v34.582031h-39.1875v-34.582031c0-8.285156-6.714844-15-15-15s-15 6.714844-15 15v34.582031h-39.1875v-34.582031c0-8.285156-6.714844-15-15-15s-15 6.714844-15 15v34.582031h-38.03125v-34.582031c0-8.285156-6.71875-15-15-15-8.285156 0-15 6.714844-15 15v34.582031h-14.023438c-22.152343 0-40.175781 18.023438-40.175781 40.175781v14.019532h-34.582031c-8.285156 0-15 6.71875-15 15 0 8.285156 6.714844 15 15 15h34.582031v38.035156h-34.582031c-8.285156 0-15 6.714844-15 15s6.714844 15 15 15h34.582031v39.1875h-34.582031c-8.285156 0-15 6.714844-15 15s6.714844 15 15 15h34.582031v39.1875h-34.582031c-8.285156 0-15 6.714844-15 15s6.714844 15 15 15h34.582031v38.035156h-34.582031c-8.285156 0-15 6.714844-15 15 0 8.28125 6.714844 15 15 15h34.582031v14.019532c0 22.152343 18.023438 40.175781 40.175781 40.175781h14.019532v34.582031c0 8.285156 6.71875 15 15 15 8.285156 0 15-6.714844 15-15v-34.582031h38.035156v34.582031c0 8.285156 6.714844 15 15 15s15-6.714844 15-15v-34.582031h39.1875v34.582031c0 8.285156 6.714844 15 15 15s15-6.714844 15-15v-34.582031h39.1875v34.582031c0 8.285156 6.714844 15 15 15s15-6.714844 15-15v-34.582031h38.03125v34.582031c0 8.285156 6.71875 15 15 15 8.285156 0 15-6.714844 15-15v-34.582031h14.023438c22.152343 0 40.171874-18.023438 40.171874-40.175781v-14.023438h34.585938c8.285156 0 15-6.714844 15-15 0-8.28125-6.714844-15-15-15h-34.585938v-38.03125h34.585938c8.285156 0 15-6.71875 15-15 0-8.285156-6.714844-15-15-15h-34.585938v-39.1875h34.585938c8.285156 0 15-6.714844 15-15s-6.714844-15-15-15h-34.585938v-39.1875zm-64.585938 220.429688c0 5.609374-4.5625 10.175781-10.171874 10.175781h-332.484376c-5.609374 0-10.175781-4.566407-10.175781-10.175781v-332.484376c0-5.609374 4.566407-10.175781 10.175781-10.175781h332.484376c5.609374 0 10.171874 4.566407 10.171874 10.175781zm0 0"/></svg>